<svg width="11" height="25" viewBox="0 0 11 25" fill="none" xmlns="http://www.w3.org/2000/svg">
<rect x="0.2" y="0.2" width="10.6" height="24.6" rx="1.8" stroke="#609ED2" stroke-opacity="0.2" stroke-width="0.4"/>
<path d="M6.90125 10.5324L4.48639 12.7613L6.90125 14.9905C6.93087 15.0178 6.95481 15.0507 6.97171 15.0873C6.98861 15.1238 6.99814 15.1634 6.99975 15.2037C7.00137 15.2439 6.99504 15.2841 6.98112 15.3219C6.9672 15.3598 6.94597 15.3945 6.91864 15.4241C6.89131 15.4537 6.85841 15.4776 6.82183 15.4945C6.78524 15.5114 6.74569 15.521 6.70542 15.5226C6.66515 15.5242 6.62496 15.5179 6.58714 15.504C6.54932 15.49 6.51462 15.4688 6.485 15.4415L3.82591 12.9869C3.79477 12.9582 3.76991 12.9233 3.75291 12.8845C3.73591 12.8457 3.72714 12.8038 3.72714 12.7614C3.72714 12.719 3.73591 12.6771 3.75291 12.6383C3.76991 12.5995 3.79477 12.5646 3.82591 12.5359L6.485 10.0814C6.54481 10.0262 6.6241 9.99699 6.70542 10.0002C6.78674 10.0035 6.86344 10.0389 6.91864 10.0987C6.97384 10.1586 7.00301 10.2378 6.99975 10.3192C6.99649 10.4005 6.96106 10.4772 6.90125 10.5324Z" fill="#609ED2" fill-opacity="0.2"/>
</svg>
