<svg width="16" height="16" viewBox="0 0 16 16" fill="none" xmlns="http://www.w3.org/2000/svg">
<path d="M11.9104 2.47341L9.86752 0.0740525C9.7792 -0.0142675 9.60064 -0.0142675 9.42336 0.0740525L7.3792 2.47341C7.2896 2.56173 7.2896 2.65069 7.46752 2.65069H9.06688V5.22797C9.06688 5.40525 9.2448 5.49421 9.33376 5.49421H9.77792C9.95584 5.49421 10.0448 5.31693 10.0448 5.22797V2.65069H11.6435C11.9994 2.65069 11.9994 2.56237 11.911 2.47341H11.9104Z" fill="url(#paint0_linear_952_56855)"/>
<path d="M12.0787 11.8505H5.2435C4.95486 11.8505 4.66686 11.6572 4.66686 11.3692L2.45246 2.51351L0.6227 1.93495C0.3347 1.74295 0.2387 1.35895 0.4307 1.06967C0.62398 0.781033 1.00926 0.685033 1.2979 0.877673L3.31838 1.64631C3.41502 1.74231 3.60766 1.83959 3.60766 2.03159L5.82142 10.5993H11.6934L14.4845 6.26711C14.5817 5.97783 14.9664 5.78583 15.255 5.88183C15.5437 5.97783 15.7363 6.36375 15.6403 6.65175L12.656 11.3686C12.56 11.6578 12.3667 11.8505 12.0787 11.8505ZM5.2435 14.5455C5.2435 14.6846 5.2709 14.8223 5.32413 14.9509C5.37736 15.0794 5.45538 15.1961 5.55373 15.2945C5.65209 15.3928 5.76885 15.4709 5.89736 15.5241C6.02587 15.5773 6.1636 15.6047 6.3027 15.6047C6.4418 15.6047 6.57953 15.5773 6.70804 15.5241C6.83655 15.4709 6.95331 15.3928 7.05167 15.2945C7.15002 15.1961 7.22804 15.0794 7.28127 14.9509C7.3345 14.8223 7.3619 14.6846 7.3619 14.5455C7.3619 14.2646 7.25031 13.9952 7.05167 13.7965C6.85303 13.5979 6.58362 13.4863 6.3027 13.4863C6.02178 13.4863 5.75237 13.5979 5.55373 13.7965C5.35509 13.9952 5.2435 14.2646 5.2435 14.5455ZM10.9229 14.5455C10.928 15.1286 11.3997 15.5996 11.9821 15.6041C12.262 15.6016 12.5298 15.4892 12.7278 15.2913C12.9258 15.0933 13.0381 14.8255 13.0406 14.5455C13.0381 14.2655 12.9258 13.9977 12.7278 13.7998C12.5298 13.6018 12.262 13.4895 11.9821 13.487C11.4048 13.391 10.9229 13.8722 10.9229 14.5455Z" fill="url(#paint1_linear_952_56855)"/>
<defs>
<linearGradient id="paint0_linear_952_56855" x1="7.39148" y1="0.0078125" x2="12.7324" y2="4.59494" gradientUnits="userSpaceOnUse">
<stop stop-color="#E7D7A6"/>
<stop offset="0.969776" stop-color="#DCBF80"/>
</linearGradient>
<linearGradient id="paint1_linear_952_56855" x1="0.566222" y1="0.777344" x2="15.1501" y2="16.0951" gradientUnits="userSpaceOnUse">
<stop stop-color="#E7D7A6"/>
<stop offset="0.969776" stop-color="#DCBF80"/>
</linearGradient>
</defs>
</svg>
