<svg width="36" height="19" viewBox="0 0 36 19" fill="none" xmlns="http://www.w3.org/2000/svg">
<path d="M16.202 11.4526C15.7015 13.8976 14.2081 15.7342 12.4622 15.9796C10.9928 16.1861 9.68619 15.2182 8.74046 14.5175C7.3253 13.4685 6.54439 12.2166 6.14807 11.4526C5.09203 10.7637 4.1502 9.91401 3.35673 8.93416C2.36957 7.71262 1.63807 6.80743 1.76168 5.6776C1.87976 4.59496 2.72181 3.8577 3.75549 2.95273C4.47498 2.32365 5.28064 1.80056 6.14807 1.39933H16.202C19.2766 1.10691 21.8876 3.49261 21.9672 6.27508C22.0498 9.15879 19.3936 11.7465 16.202 11.4526Z" fill="black"/>
<path d="M5.70742 4.66564C5.63153 4.66421 5.55771 4.64062 5.49506 4.59777C5.4324 4.55492 5.38364 4.49469 5.35478 4.42449C5.32592 4.35428 5.31821 4.27717 5.33261 4.20265C5.34701 4.12812 5.38288 4.05943 5.43582 4.00503L7.3049 2.12199C7.37403 2.04699 7.47012 2.00252 7.57203 1.99837C7.67394 1.99421 7.77333 2.03071 7.84833 2.09983C7.85453 2.10537 7.86029 2.11113 7.86605 2.11711C7.93813 2.19002 7.97856 2.28841 7.97856 2.39093C7.97856 2.49345 7.93813 2.59184 7.86605 2.66475L5.98301 4.54779C5.94764 4.58533 5.90492 4.61516 5.8575 4.63544C5.81008 4.65572 5.75899 4.666 5.70742 4.66564ZM4.64405 5.73366C4.54312 5.73277 4.4462 5.69403 4.37245 5.62511C4.30026 5.55226 4.25977 5.45385 4.25977 5.35129C4.25977 5.24874 4.30026 5.15033 4.37245 5.07748L4.53085 4.91908C4.60253 4.84654 4.70007 4.80543 4.80205 4.80476C4.90403 4.8041 5.0021 4.84394 5.07472 4.91554L5.07848 4.91908C5.15056 4.99199 5.19099 5.09037 5.19099 5.1929C5.19099 5.29542 5.15056 5.39381 5.07848 5.46671L4.92009 5.62511C4.88372 5.66108 4.84062 5.68952 4.79326 5.70883C4.7459 5.72814 4.6952 5.73794 4.64405 5.73765V5.73366Z" fill="white"/>
<path d="M16.8865 5.14062L16.8005 8.92399L11.9414 13.3677L16.8865 5.14062Z" fill="#FF8A52"/>
<path d="M16.8865 5.14062L11.9414 13.3677L13.4394 7.03186L16.8865 5.14062Z" fill="#FF8A52"/>
<path d="M16.1614 6.3457L16.2022 7.05173L15.6094 7.25975L16.1614 6.3457Z" fill="#FF8B53"/>
<path d="M16.1625 6.3457L15.5605 6.63525L15.633 7.25975L16.1625 6.3457Z" fill="#FFA47B"/>
<path d="M11.9414 13.3677L7.0801 8.92399L6.99414 5.14062L11.9414 13.3677ZM10.4437 7.00971L11.9414 13.3456L6.99414 5.14062L10.4437 7.00971Z" fill="#FF8A52"/>
<path d="M8.27056 7.25975L7.67773 7.05173L7.7185 6.3457L8.27056 7.25975Z" fill="#FF8B53"/>
<path d="M8.26886 7.25975L8.3413 6.63525L7.7168 6.3457L8.26886 7.25975Z" fill="#FFA47B"/>
<path d="M15.0176 3.43555L15.9733 7.42693L11.9414 13.3687L15.0176 3.43555Z" fill="#FFCB71"/>
<path d="M15.0169 3.43555L11.9407 13.3687L11.8594 6.30464L15.0169 3.43555Z" fill="#FFCB71"/>
<path d="M14.5867 4.81055L14.8401 5.60253L14.166 6.17276L14.5867 4.81055Z" fill="#FF8741"/>
<path d="M14.5863 4.81055L13.8984 5.26314L14.1656 6.16811L14.5863 4.81055Z" fill="#FFE971"/>
<path d="M31.3608 8.39453L31.4294 8.67965L30.4414 10.1358L30.5633 9.33162L31.3608 8.39453Z" fill="#FFB259"/>
<path d="M11.9401 13.3687L7.9082 7.42693L8.86302 3.43555L11.9401 13.3687Z" fill="#FFCB71"/>
<path d="M12.0219 6.30464L11.9415 13.3687L8.86328 3.43555L12.0219 6.30464Z" fill="#FFCB71"/>
<path d="M9.71364 6.17276L9.03906 5.60253L9.2925 4.81055L9.71364 6.17276Z" fill="#FF8741"/>
<path d="M9.71388 6.17202L9.98083 5.26683L9.29297 4.81445L9.71388 6.17202Z" fill="#FFE971"/>
<path d="M11.4412 10.0876L11.9401 13.3685L7.9082 7.42673L8.18867 6.26367L11.4412 10.0876Z" fill="#FFB259"/>
<path d="M11.9414 2.19141L9.67773 6.01531L11.9414 13.3689V2.19141Z" fill="#FFFCB0"/>
<path d="M11.9414 2.19141V13.3689L14.2256 6.09661L11.9414 2.19141Z" fill="#FFD96F"/>
<path d="M11.9399 4.01953L11.1074 5.22335L11.9399 6.23709V4.01953Z" fill="#FF8BA5"/>
<path d="M11.9414 4.01953L12.729 5.22335L11.9414 6.23709V4.01953Z" fill="#F05A57"/>
<path d="M29.3856 1.43266H19.2569L17.8616 0H6.01754L0 6.2085L11.8441 18.1492L14.2462 15.76L29.3856 15.7469C32.437 15.7861 34.9394 12.7469 35.137 9.10706C35.3537 5.11744 32.7458 1.41317 29.3856 1.43266ZM2.00577 6.2085L6.78161 1.43266H16.8109L21.5867 6.2085L11.8441 15.9505L2.00577 6.2085Z" fill="url(#paint0_linear_4856_38816)"/>
<defs>
<linearGradient id="paint0_linear_4856_38816" x1="17.5748" y1="0" x2="17.5748" y2="18.1492" gradientUnits="userSpaceOnUse">
<stop stop-color="#ECD7C6"/>
<stop offset="1" stop-color="#AB896A"/>
</linearGradient>
</defs>
</svg>
