<svg width="16" height="16" viewBox="0 0 16 16" fill="none" xmlns="http://www.w3.org/2000/svg">
<path d="M5.9023 10.2933C3.7658 10.2933 2.0783 8.60683 2.0783 6.46883C2.0783 4.33233 3.7643 2.64483 5.9023 2.64483C8.0388 2.64483 9.7268 4.33083 9.7268 6.46883C9.6133 8.60683 7.9268 10.2933 5.9023 10.2933ZM5.9023 3.54533C4.3283 3.54533 2.9788 4.89433 2.9788 6.46883C2.9788 8.04333 4.3283 9.39233 5.9023 9.39233C7.4768 9.39233 8.8258 8.04333 8.8258 6.46883C8.8258 4.89633 7.4768 3.54533 5.9023 3.54533ZM0.729297 15.4663C0.504297 15.4663 0.279297 15.2413 0.279297 15.0163C0.279297 11.9793 2.7523 9.39433 5.9013 9.39433H6.0128C6.2378 9.39433 6.4628 9.61933 6.4628 9.84433C6.4628 10.0693 6.2378 10.2948 6.0128 10.2948C3.3143 10.2948 1.1778 12.4313 1.1778 15.0178C1.1798 15.2413 0.954797 15.4663 0.729297 15.4663ZM5.7913 10.2933C5.5663 10.2933 5.3413 10.0683 5.3413 9.84283C5.3413 9.61783 5.5663 9.39283 5.7913 9.39283H5.9028C6.1278 9.39283 6.3528 9.61783 6.3528 9.84283C6.3528 10.0678 6.1278 10.2928 5.7913 10.2928L5.9028 9.84283L5.7913 10.2928V10.2933ZM10.9628 15.4663C10.7378 15.4663 10.5128 15.2413 10.5128 15.0163C10.5128 13.6668 9.9508 12.4293 9.0498 11.5308C8.8248 11.4188 8.8248 11.0803 9.0498 10.8553C9.1618 10.6303 9.5003 10.6303 9.7253 10.8553C10.8493 11.8673 11.5253 13.4418 11.5253 15.0163C11.4133 15.2413 11.1883 15.4663 10.9628 15.4663ZM9.9518 9.39483C9.7268 9.39483 9.5018 9.16983 9.5018 8.94483C9.5018 8.71933 9.7268 8.49433 9.9518 8.49433C11.5263 8.49433 12.8753 7.14483 12.8753 5.57033C12.8753 3.99633 11.5263 2.64683 9.9518 2.64683C9.3898 2.64683 8.9393 2.75883 8.4893 3.09683C8.2643 3.20883 8.0393 3.09683 7.9273 2.98533C7.8153 2.76033 7.9273 2.53533 8.0388 2.42333C8.6008 2.08683 9.2763 1.86133 9.9503 1.86133C12.0883 1.85983 13.7743 3.54583 13.7743 5.68383C13.7743 7.82033 12.0883 9.39483 9.9518 9.39483ZM15.1233 14.5663C14.8983 14.5663 14.6733 14.3413 14.6733 14.1163C14.6733 12.7668 14.1113 11.5293 13.2108 10.6303C12.9858 10.5188 12.9858 10.1803 13.2108 9.95533C13.4358 9.73033 13.6608 9.73033 13.8858 9.95533C15.0118 10.9693 15.6858 12.5433 15.6858 14.1178C15.5738 14.3428 15.3488 14.5663 15.1233 14.5663Z" fill="#BCA997" fill-opacity="0.5"/>
</svg>
