<svg width="20" height="20" viewBox="0 0 20 20" fill="none" xmlns="http://www.w3.org/2000/svg">
<path d="M10 0C4.47768 0 0 4.47768 0 10C0 15.5223 4.47768 20 10 20C15.5223 20 20 15.5223 20 10C20 4.47768 15.5223 0 10 0ZM15.0513 7.47545L8.99107 13.5357C8.85268 13.6741 8.66964 13.7433 8.48661 13.7433C8.30357 13.7433 8.12054 13.6741 7.97991 13.5357L4.94866 10.5045C4.67188 10.2277 4.67188 9.77232 4.94866 9.4933C5.22545 9.21652 5.6808 9.21652 5.95982 9.4933L8.48661 12.0179L14.0402 6.46429C14.317 6.1875 14.7723 6.1875 15.0513 6.46429C15.3281 6.7433 15.3281 7.19643 15.0513 7.47545Z" fill="#A58970"/>
</svg>
