<svg width="26" height="28" viewBox="0 0 26 28" fill="none" xmlns="http://www.w3.org/2000/svg">
<rect x="1" y="1" width="24" height="26" rx="4" fill="#1D1E20" stroke="#C4C1BC" stroke-width="0.3"/>
<path d="M13.14 6.44C11.74 6.44 10.6 6.82 9.72 7.62C8.78 8.42 8.26 9.52 8.14 10.94H10.28C10.36 10.06 10.66 9.4 11.14 8.96C11.62 8.52 12.3 8.3 13.16 8.3C14 8.3 14.66 8.48 15.1 8.88C15.5 9.26 15.72 9.8 15.72 10.52C15.72 11.24 15.48 11.8 15.04 12.18C14.6 12.56 13.94 12.76 13.06 12.76H12.04V14.4H13.08C14.02 14.4 14.74 14.6 15.22 15C15.74 15.4 16 16.02 16 16.86C16 17.58 15.74 18.16 15.26 18.64C14.7 19.16 13.96 19.44 13.04 19.44C12.2 19.44 11.52 19.2 11 18.72C10.4 18.2 10.1 17.46 10.06 16.5H7.86C7.98 18.1 8.54 19.32 9.54 20.16C10.42 20.9 11.6 21.28 13.06 21.28C14.58 21.28 15.84 20.84 16.8 20C17.7 19.16 18.16 18.08 18.16 16.76C18.16 15.92 17.92 15.22 17.44 14.68C17 14.16 16.36 13.76 15.52 13.5C17.08 12.98 17.88 11.92 17.88 10.36C17.88 9.14 17.44 8.18 16.6 7.48C15.72 6.78 14.58 6.44 13.14 6.44Z" fill="white"/>
</svg>
