<svg width="11" height="25" viewBox="0 0 11 25" fill="none" xmlns="http://www.w3.org/2000/svg">
<rect width="11" height="25" rx="2" fill="url(#paint0_linear_3294_100319)"/>
<path d="M4.09875 10.5324L6.51361 12.7613L4.09875 14.9905C4.06913 15.0178 4.04519 15.0507 4.02829 15.0873C4.01139 15.1238 4.00186 15.1634 4.00025 15.2037C3.99863 15.2439 4.00496 15.2841 4.01888 15.3219C4.0328 15.3598 4.05403 15.3945 4.08136 15.4241C4.10869 15.4537 4.14159 15.4776 4.17817 15.4945C4.21476 15.5114 4.25431 15.521 4.29458 15.5226C4.33485 15.5242 4.37504 15.5179 4.41286 15.504C4.45068 15.49 4.48538 15.4688 4.515 15.4415L7.17409 12.9869C7.20523 12.9582 7.23009 12.9233 7.24709 12.8845C7.26409 12.8457 7.27286 12.8038 7.27286 12.7614C7.27286 12.719 7.26409 12.6771 7.24709 12.6383C7.23009 12.5995 7.20523 12.5646 7.17409 12.5359L4.515 10.0814C4.45519 10.0262 4.3759 9.99699 4.29458 10.0002C4.21326 10.0035 4.13656 10.0389 4.08136 10.0987C4.02616 10.1586 3.99699 10.2378 4.00025 10.3192C4.00351 10.4005 4.03894 10.4772 4.09875 10.5324Z" fill="#393A3D"/>
<defs>
<linearGradient id="paint0_linear_3294_100319" x1="0.16887" y1="0" x2="0.16887" y2="24.2324" gradientUnits="userSpaceOnUse">
<stop stop-color="#EEE0BD"/>
<stop offset="0.0847356" stop-color="#D4C8A9"/>
<stop offset="1" stop-color="#C4B593"/>
</linearGradient>
</defs>
</svg>
