<svg width="20" height="20" viewBox="0 0 20 20" fill="none" xmlns="http://www.w3.org/2000/svg">
<path d="M10 20C4.48607 20 0 15.5139 0 10C0 4.48608 4.48607 0 10 0C15.5139 0 20 4.48608 20 10C20 15.5139 15.5139 20 10 20ZM10 1.34213C5.22648 1.34213 1.34213 5.22537 1.34213 10C1.34213 14.7746 5.22648 18.6579 10 18.6579C14.7735 18.6579 18.6579 14.7746 18.6579 10C18.6579 5.22537 14.7735 1.34213 10 1.34213Z" fill="white"/>
<path d="M13.1714 11.5186H10.6236V10.427H13.1714C13.5416 10.427 13.8425 10.1262 13.8425 9.75595C13.8425 9.38575 13.5416 9.08489 13.1714 9.08489H11.4166L13.6523 6.79208C13.9107 6.52701 13.9062 6.102 13.64 5.84364C13.375 5.58528 12.9499 5.58976 12.6916 5.85595L9.95251 8.66435L7.21344 5.85483C6.95485 5.58973 6.53037 5.58422 6.26499 5.84253C5.9999 6.10111 5.99439 6.52558 6.25269 6.79096L8.48846 9.08377H6.73362C6.36342 9.08377 6.0625 9.38463 6.0625 9.75483C6.0625 10.125 6.36342 10.4259 6.73362 10.4259H9.28144V11.5175H6.73362C6.36342 11.5175 6.0625 11.8184 6.0625 12.1886C6.0625 12.5588 6.36342 12.8596 6.73362 12.8596H9.28144V14.7084C9.28144 15.0786 9.5823 15.3795 9.95251 15.3795C10.3227 15.3795 10.6236 15.0786 10.6236 14.7084V12.8607H13.1714C13.5416 12.8607 13.8425 12.5599 13.8425 12.1897C13.8425 11.8195 13.5416 11.5186 13.1714 11.5186V11.5186Z" fill="#DE1515"/>
</svg>
