<svg width="30" height="30" viewBox="0 0 30 30" fill="none" xmlns="http://www.w3.org/2000/svg">
<path d="M15.0005 28.0674C7.79581 28.0674 1.93359 22.2061 1.93359 15.0005C1.93359 7.79581 7.79576 1.93359 15.0005 1.93359C22.2061 1.93359 28.0674 7.79485 28.0674 15.0005C28.0674 22.2061 22.2061 28.0674 15.0005 28.0674ZM15.0005 3.80859C8.82894 3.80859 3.80859 8.82889 3.80859 15.0005C3.80859 21.1711 8.82889 26.1924 15.0005 26.1924C21.1711 26.1924 26.1924 21.1721 26.1924 15.0005C26.1924 8.82889 21.1711 3.80859 15.0005 3.80859Z" fill="#FF0707"/>
<path d="M13.5938 8.90626C13.5938 9.68292 14.2234 10.3125 15 10.3125C15.7767 10.3125 16.4063 9.68292 16.4063 8.90626C16.4063 8.1296 15.7767 7.5 15 7.5C14.2234 7.5 13.5938 8.1296 13.5938 8.90626Z" fill="#FF0707"/>
<path d="M15 22.5C14.4825 22.5 14.0625 22.081 14.0625 21.5625V13.125C14.0625 12.6075 14.4825 12.1875 15 12.1875C15.5175 12.1875 15.9376 12.6075 15.9376 13.125V21.5625C15.9376 22.081 15.5175 22.5 15 22.5Z" fill="#FF0707"/>
</svg>
