<svg width="26" height="28" viewBox="0 0 26 28" fill="none" xmlns="http://www.w3.org/2000/svg">
<rect x="1" y="1" width="24" height="26" rx="4" fill="#1D1E20" stroke="#C5B19E" stroke-width="0.3"/>
<path d="M13.22 6.44C11.7 6.44 10.46 6.94 9.54 7.98C8.64 8.94 8.18 10.22 8.16 11.82H10.34C10.38 10.66 10.62 9.8 11.1 9.2C11.56 8.58 12.24 8.28 13.14 8.28C13.98 8.28 14.64 8.48 15.08 8.88C15.52 9.28 15.74 9.88 15.74 10.68C15.74 11.52 15.4 12.3 14.76 13.02C14.36 13.44 13.68 13.98 12.72 14.66C11.1 15.78 10.02 16.64 9.5 17.26C8.54 18.34 8.08 19.58 8.08 21H17.92V19.08H10.78C11.08 18.3 12 17.4 13.54 16.38C14.96 15.42 15.94 14.66 16.5 14.08C17.42 13.06 17.9 11.94 17.9 10.7C17.9 9.44 17.46 8.42 16.6 7.62C15.72 6.82 14.58 6.44 13.22 6.44Z" fill="#F9C17F"/>
</svg>
