<svg width="20" height="20" viewBox="0 0 20 20" fill="none" xmlns="http://www.w3.org/2000/svg">
<path d="M10 20C4.47691 20 0 15.5231 0 10C0 4.47691 4.47691 0 10 0C15.5231 0 20 4.47691 20 10C20 15.5231 15.5231 20 10 20ZM9.9677 16.2931C10.31 16.2931 10.6383 16.1571 10.8804 15.915C11.1225 15.673 11.2585 15.3446 11.2585 15.0023C11.2585 14.66 11.1225 14.3317 10.8804 14.0896C10.6383 13.8475 10.31 13.7115 9.9677 13.7115C9.25691 13.7115 8.68 14.2885 8.68 15.0015C8.68 15.7146 9.25617 16.2931 9.9677 16.2931ZM10.0031 3.6423C9.2923 3.6423 8.45461 4.25309 8.45461 4.94385L9.04924 11.8115C9.19691 12.5469 9.5323 12.7315 9.96461 12.8131C10.42 12.8131 10.8808 12.4738 10.9469 11.7469L11.4792 4.97C11.4792 4.28076 10.7138 3.6423 10.0031 3.6423H10.0031Z" fill="#FFBE18"/>
</svg>
