<svg width="20" height="20" viewBox="0 0 20 20" fill="none" xmlns="http://www.w3.org/2000/svg">
<path d="M10.0003 18.7116C5.19721 18.7116 1.28906 14.8041 1.28906 10.0003C1.28906 5.19721 5.19717 1.28906 10.0003 1.28906C14.8041 1.28906 18.7116 5.19657 18.7116 10.0003C18.7116 14.8041 14.8041 18.7116 10.0003 18.7116ZM10.0003 2.53906C5.88596 2.53906 2.53906 5.88592 2.53906 10.0003C2.53906 14.1141 5.88592 17.4616 10.0003 17.4616C14.1141 17.4616 17.4616 14.1147 17.4616 10.0003C17.4616 5.88592 14.1141 2.53906 10.0003 2.53906Z" fill="#FF5555"/>
<path d="M9.0625 5.93751C9.0625 6.45528 9.48224 6.87502 10 6.87502C10.5178 6.87502 10.9375 6.45528 10.9375 5.93751C10.9375 5.41974 10.5178 5 10 5C9.48224 5 9.0625 5.41974 9.0625 5.93751Z" fill="#FF5555"/>
<path d="M10 15C9.655 15 9.375 14.7207 9.375 14.375V8.75002C9.375 8.405 9.655 8.125 10 8.125C10.345 8.125 10.625 8.405 10.625 8.75002V14.375C10.625 14.7207 10.345 15 10 15Z" fill="#FF5555"/>
</svg>
