<svg width="15" height="14" viewBox="0 0 15 14" fill="none" xmlns="http://www.w3.org/2000/svg">
<path d="M7.40039 14C3.53423 14 0.400391 10.8662 0.400391 7C0.400391 3.13384 3.53423 0 7.40039 0C11.2666 0 14.4004 3.13384 14.4004 7C14.4004 10.8662 11.2666 14 7.40039 14ZM7.37778 11.4052C7.61741 11.4052 7.84723 11.31 8.01668 11.1405C8.18612 10.9711 8.28132 10.7413 8.28132 10.5016C8.28132 10.262 8.18612 10.0322 8.01668 9.86272C7.84723 9.69327 7.61741 9.59808 7.37778 9.59808C6.88023 9.59808 6.47639 10.0019 6.47639 10.5011C6.47639 11.0002 6.87971 11.4052 7.37778 11.4052ZM7.40255 2.54961C6.905 2.54961 6.31862 2.97716 6.31862 3.46069L6.73486 8.26808C6.83823 8.78284 7.073 8.91208 7.37562 8.96916C7.69439 8.96916 8.01692 8.73168 8.06323 8.22284L8.43586 3.479C8.43586 2.99653 7.90008 2.54961 7.40254 2.54961H7.40255Z" fill="#FF5555"/>
</svg>
